<svg width="20" height="11" viewBox="0 0 20 11" fill="none" xmlns="http://www.w3.org/2000/svg">
<path d="M19.6042 2.17972L10.7388 10.7212C10.6332 10.8226 10.5189 10.8942 10.3958 10.9361C10.2726 10.9787 10.1407 11 10 11C9.85928 11 9.72735 10.9787 9.60422 10.9361C9.48109 10.8942 9.36675 10.8226 9.26121 10.7212L0.369393 2.17972C0.123131 1.94316 0 1.64746 0 1.29263C0 0.937788 0.131926 0.63364 0.395778 0.380184C0.659631 0.126728 0.967458 0 1.31926 0C1.67106 0 1.97889 0.126728 2.24274 0.380184L10 7.8318L17.7573 0.380184C18.0035 0.143625 18.3068 0.0253448 18.667 0.0253448C19.028 0.0253448 19.3404 0.152073 19.6042 0.40553C19.8681 0.658986 20 0.954685 20 1.29263C20 1.63057 19.8681 1.92627 19.6042 2.17972Z" fill="white"/>
</svg>
