<svg width="33" height="32" viewBox="0 0 33 32" fill="none" xmlns="http://www.w3.org/2000/svg">
<path fill-rule="evenodd" clip-rule="evenodd" d="M16.1737 0C7.23774 0 0 7.29286 0 16.2969C0 23.5083 4.62972 29.5992 11.0588 31.7586C11.8675 31.9012 12.1707 31.4123 12.1707 30.9845C12.1707 30.5974 12.1505 29.314 12.1505 27.9492C8.08686 28.7029 7.03556 26.951 6.71209 26.0343C6.53014 25.5658 5.74167 24.1194 5.05428 23.7324C4.4882 23.4268 3.67952 22.6731 5.03407 22.6527C6.30775 22.6323 7.21752 23.8342 7.52078 24.3231C8.97641 26.788 11.3014 26.0954 12.2314 25.6676C12.3729 24.6083 12.7974 23.8953 13.2624 23.4879C9.66379 23.0805 5.9034 21.6749 5.9034 15.4413C5.9034 13.669 6.53014 12.2023 7.56121 11.0615C7.39947 10.6541 6.83339 8.98366 7.72295 6.74284C7.72295 6.74284 9.07749 6.31505 12.1707 8.41327C13.4646 8.04659 14.8394 7.86325 16.2141 7.86325C17.5889 7.86325 18.9637 8.04659 20.2576 8.41327C23.3508 6.29468 24.7053 6.74284 24.7053 6.74284C25.5949 8.98366 25.0288 10.6541 24.8671 11.0615C25.8982 12.2023 26.5249 13.6486 26.5249 15.4413C26.5249 21.6952 22.7443 23.0805 19.1456 23.4879C19.7319 23.9972 20.2374 24.975 20.2374 26.5028C20.2374 28.6825 20.2171 30.4345 20.2171 30.9845C20.2171 31.4123 20.5204 31.9215 21.3291 31.7586C24.5398 30.6663 27.3298 28.587 29.3063 25.8134C31.2829 23.0398 32.3465 19.7115 32.3474 16.2969C32.3474 7.29286 25.1097 0 16.1737 0Z" fill="#F2C010"/>
</svg>
