<svg width="33" height="32" viewBox="0 0 33 32" fill="none" xmlns="http://www.w3.org/2000/svg">
<path d="M7.03205 31.7391H0V10.643H7.03205V31.7391ZM3.51743 7.83017C1.57237 7.83017 0 6.25359 0 4.31274C0 2.3719 1.57518 0.798126 3.51743 0.798126C5.45546 0.798126 7.03205 2.37471 7.03205 4.31274C7.03205 6.25359 5.45546 7.83017 3.51743 7.83017ZM32.3474 31.7391H25.5868V21.4723C25.5868 19.0238 25.5404 15.8748 22.0722 15.8748C18.5519 15.8748 18.0105 18.5414 18.0105 21.2951V31.7391H11.2513V10.6275H17.7404V13.5121H17.8319C18.7348 11.8525 20.9414 10.1029 24.2324 10.1029C31.0816 10.1029 32.3474 14.4755 32.3474 20.1602V31.7391Z" fill="#F2C010"/>
</svg>
