<svg width="49" height="34" viewBox="0 0 49 34" fill="none" xmlns="http://www.w3.org/2000/svg">
<path d="M45.8817 19.0117C44.6003 17.9483 43.025 17.2776 41.3537 17.084L40.9772 17.0391C40.9772 17.0293 40.9772 17.0189 40.9772 17.0091C40.9986 17.0052 41.02 17 41.0441 16.998C41.4603 16.9636 41.8732 16.8982 42.2792 16.8025C44.4656 16.2982 46.3684 14.9921 47.5919 13.1557C48.8153 11.3192 49.2653 9.09387 48.8482 6.9424C48.5386 5.23843 47.6846 3.67332 46.408 2.47049C44.7154 0.859512 42.6805 0.0155713 40.3138 0.0116611C33.6546 -0.000938251 26.9958 -0.00332779 20.3375 0.00449251C20.298 0.00449251 20.2592 0.00449251 20.2204 0.00449251C20.1927 0.000416386 20.1643 0.00568171 20.14 0.0194219C20.1156 0.033162 20.0969 0.0545582 20.0867 0.0800887C20.0706 0.113977 20.0486 0.145258 20.0292 0.178494L4.09598 27.0725L0.0949599 33.8273C0.0655357 33.8768 0.0394552 33.9283 0 34H40.2282C40.9033 34.001 41.5763 33.9276 42.2344 33.781C46.6407 32.7937 49.7242 28.5883 48.8462 23.9405C48.4683 21.9574 47.4632 20.3125 45.8817 19.0117ZM15.4323 25.107L15.425 25.0901C15.425 25.0848 15.4196 25.079 15.425 25.0751C15.4354 25.0499 15.4473 25.0253 15.4604 25.0014C16.9597 22.4737 18.4592 19.9458 19.959 17.4177C19.9636 17.4092 19.977 17.4053 19.9944 17.3942L24.5639 25.107H15.4323Z" fill="#F2C110"/>
</svg>
