<svg width="33" height="28" viewBox="0 0 33 28" fill="none" xmlns="http://www.w3.org/2000/svg">
<path d="M32.3474 3.93657C31.1568 4.46531 29.8779 4.82112 28.5355 4.9816C29.9065 4.16051 30.9578 2.86044 31.4529 1.31031C30.1715 2.07045 28.7508 2.62282 27.238 2.9214C26.0275 1.63129 24.3032 0.825119 22.3948 0.825119C18.7297 0.825119 15.7588 3.79724 15.7588 7.46106C15.7588 7.98109 15.8185 8.48867 15.9305 8.97262C10.4155 8.69644 5.52622 6.054 2.25179 2.0381C1.682 3.01844 1.35481 4.15802 1.35481 5.37598C1.35481 7.67753 2.52549 9.70912 4.30577 10.8985C3.21844 10.8636 2.19456 10.5651 1.30007 10.0687C1.30007 10.0973 1.30007 10.1234 1.30007 10.152C1.30007 13.368 3.58669 16.0502 6.6235 16.6586C6.0674 16.8104 5.48019 16.8912 4.87432 16.8912C4.4476 16.8912 4.03083 16.8489 3.6265 16.773C4.47124 19.4092 6.92208 21.3289 9.82577 21.3824C7.55532 23.1626 4.69393 24.2238 1.58372 24.2238C1.04876 24.2238 0.520027 24.1927 0 24.1305C2.93728 26.0128 6.42445 27.1114 10.1729 27.1114C22.3798 27.1114 29.0531 16.9995 29.0531 8.2299C29.0531 7.94252 29.0469 7.65638 29.0344 7.37149C30.332 6.43469 31.4579 5.2665 32.3474 3.93657Z" fill="#F2C110"/>
</svg>
